<?xml version="1.0" encoding="UTF-8" standalone="no"?>
<svg
   viewBox="0 0 850.39503 850.39503"
   version="1.1"
   id="svg5"
   width="850.39502"
   height="850.39502"
   xmlns="http://www.w3.org/2000/svg"
   xmlns:svg="http://www.w3.org/2000/svg"
   xmlns:rdf="http://www.w3.org/1999/02/22-rdf-syntax-ns#"
   xmlns:cc="http://creativecommons.org/ns#"
   xmlns:dc="http://purl.org/dc/elements/1.1/">
  <defs
     id="defs2">
    <style
       id="style1">.cls-1{fill:none}.cls-2{fill:#0066b2}.cls-3{fill:#fff}.cls-4{fill:#dc052d}.cls-5{clip-path:url(#clip-path)}</style>
    <style
       class="darkreader darkreader--sync"
       media="screen"
       id="style2" />
    <clipPath
       id="clip-path">
      <path
         class="cls-1"
         d="M 136.03,136.03 H 430.9 V 430.9 H 136.03 Z"
         id="path2" />
    </clipPath>
  </defs>
  <title
     id="title2">FCBayern Logo 3C</title>
  <g
     id="g5"
     transform="scale(1.5)">
    <g
       id="Ringe">
      <path
         class="cls-2"
         d="M 283.46,0 C 126.91,0 0,126.91 0,283.46 0,440.01 126.91,566.93 283.46,566.93 440.01,566.93 566.93,440 566.93,283.46 566.93,126.92 440,0 283.46,0 Z"
         id="path3"
         style="fill:#286cfd;fill-opacity:1" />
      <path
         class="cls-3"
         d="m 283.46,14.17 c -148.72,0 -269.29,120.57 -269.29,269.29 0,148.72 120.57,269.3 269.29,269.3 148.72,0 269.3,-120.57 269.3,-269.3 0,-148.73 -120.57,-269.29 -269.3,-269.29 z"
         id="path4" />
      <path
         class="cls-4"
         d="M 283.46,26.93 C 141.78,26.93 26.93,141.79 26.93,283.46 26.93,425.13 141.79,540 283.46,540 425.13,540 540,425.15 540,283.46 540,141.77 425.15,26.93 283.46,26.93 Z m 0,416.69 A 160.16,160.16 0 1 1 443.62,283.46 160.15,160.15 0 0 1 283.46,443.62 Z"
         id="path5"
         style="fill:#ed0038;fill-opacity:1" />
    </g>
    <path
       class="cls-5 cls-2"
       d="m 142.65,327 a 146.77,146.77 0 0 0 32.5,56.43 V 317 l -37.56,-54.87 a 146.84,146.84 0 0 0 5.06,64.87 m 75.82,52.65 v -76.07 l -43,-62.81 v -57.61 a 147.82,147.82 0 0 0 -20.54,28.21 l 20.2,29.51 V 317 l 43,62.8 v 35.76 A 148,148 0 0 0 251,427.23 Z m 43.33,-89.52 43,62.8 v 76.11 l -43,-62.81 v -76.06 l -43,-62.81 v -76.11 l 43,62.8 z m 43.33,-13.41 -43,-62.81 v -76.07 l 43,62.81 v 76.11 l 43,62.81 v 76.11 l -43,-62.81 z M 239.89,142.65 A 146.81,146.81 0 0 0 183,175.59 l 35.51,51.87 v 76.11 l 43,62.8 v 62.86 A 147.7,147.7 0 0 0 384,391.34 l -35.51,-51.87 v -76.12 l -43,-62.81 v -62.86 a 146.81,146.81 0 0 0 -65.58,5 m 151.9,183.4 v -76.14 l -43,-62.81 V 151.38 A 147.86,147.86 0 0 0 315.93,139.7 l 32.54,47.54 v 76.11 l 43,62.81 v 57.61 A 147.83,147.83 0 0 0 412,355.57 Z m 32.49,-86.17 a 146.84,146.84 0 0 0 -32.49,-56.43 v 66.49 l 37.55,54.86 a 146.8,146.8 0 0 0 -5.06,-64.92"
       id="Rapport"
       clip-path="url(#clip-path)"
       style="fill:#286cfd;fill-opacity:1" />
    <path
       class="cls-3"
       d="m 112,336.45 7.28,15.5 -11.84,22.38 c -1.78,3.33 -3.32,6.05 -3.32,6.05 l 0.16,0.29 c 0,0 3.13,0.19 6.89,0.51 l 25.22,2.27 9,14.55 -54.5,31.84 -8.71,-14 22.82,-13.28 c 5.32,-3.08 9.33,-5.25 9.33,-5.25 l -0.16,-0.29 c 0,0 -2.75,-0.2 -8.5,-1.05 L 82.46,392.52 82.3,392.23 92,370.88 c 2.42,-5.28 3.75,-7.7 3.75,-7.7 l -0.16,-0.29 c 0,0 -4,2.18 -9.49,5 l -23.56,11.81 -7,-14.92 z m 41.72,68.79 12.56,11.16 -25.22,30 c -4.14,5 -3.93,10.22 2.33,15.15 6.26,4.93 11.4,3.91 15.28,-1.28 l 23.26,-31.55 13.79,9.59 -23.88,32.34 c -10.95,14.84 -25.13,11.91 -37.39,2.26 C 122.19,463.26 116,450.16 127.88,436 Z m 25.13,20.42 -15.5,10.83 -0.26,-0.21 6.91,-17.6 z m 26.58,18.12 16.4,6 9.27,31.66 c 2,6.85 2.82,10.47 2.82,10.47 l 0.48,0.14 c 0,0 1.07,-4.71 2.64,-10.47 l 6.73,-25.19 16,3.79 -16.3,61 -17,-4.08 -10.53,-33.1 c -2,-6.43 -2.9,-10.5 -2.9,-10.5 l -0.48,-0.14 c 0,0 -1.41,5 -3.19,10.31 l -8.6,25.67 -15.45,-5.7 z m 122.79,54.61 c 0.35,15 -9,25.24 -26.91,26.45 C 284.58,526 268.92,518.38 268,494 c -0.93,-24.73 12.76,-34 28.82,-35.07 17.39,-1.18 27.45,8.54 29.18,21.74 l -16.9,1.14 c -1.55,-5.72 -4.61,-9.09 -12.06,-8.58 -7,0.47 -11.85,6.88 -11.32,19.57 0.57,13.27 6.07,18.39 13.86,17.87 7.79,-0.52 11.19,-4.25 11.56,-11.1 z m 3.78,-43.61 15.67,-6 8.86,21.22 19.56,-8.92 -10.25,-20.69 14.85,-7.86 28,56.58 -14.87,7.89 -11.08,-22.5 -20.47,9.33 L 372,507 356.33,513 332,454.85 Z m 58.61,-29.62 30.21,-28.95 9.72,9.54 -18.94,18.15 7.23,8 18.34,-17.57 9.49,9.3 -18.95,18.17 7.86,8.8 21.34,-20.45 9.72,9.54 -33.8,32.39 z m 37.75,-37.9 8.64,-15.15 32.78,-3.78 c 7.09,-0.82 10.8,-1 10.8,-1 l 0.22,-0.45 c 0,0 -4.43,-1.88 -9.8,-4.38 l -23.69,-10.89 6.44,-15.15 57.25,26.37 -6.89,16 -34.41,4.82 c -6.68,0.94 -10.84,1.09 -10.84,1.09 l -0.22,0.45 c 0,0 4.64,2.22 9.62,4.89 l 23.84,12.82 -8.23,14.26 z M 67.44,178.35 l 12.66,5 -10.1,28.03 11.82,3.91 9.46,-26.23 12.35,4.9 -9.18,25.45 22.11,7.18 -4.75,16.11 L 51.33,223 Z m 77.32,-41.66 c 10.91,9.89 12.79,23.44 1.89,37.24 -10,12.63 -25.34,18.69 -45.21,3.94 -19.61,-14.54 -17,-31.74 -6.62,-44.9 11,-13.94 25.05,-15.11 36,-7.35 l -10.5,13.29 c -5.12,-2.88 -9.93,-2.56 -14.72,3.5 -4.79,6.06 -3.73,13.56 6.9,21.53 10.17,7.61 18.11,7.33 22.54,1.73 4.73,-6 3.81,-10.85 -0.82,-15.56 z m 41.48,-71.44 c 11.15,-5.15 22.07,-6.27 26.88,5.13 3.95,9.33 1.44,13.41 -3.43,17.5 l 0.17,0.38 c 5.2,-1.21 12.17,-1 16.61,9.42 5.33,12.53 -2.84,19.78 -14,24.94 l -23.58,10.9 -28.27,-56.43 z m 9.47,22.87 c 4.37,-2 5.62,-4.06 3.86,-8.27 -1.7,-4.06 -4.58,-4.37 -8.8,-2.42 l -9.42,4.35 5.32,10.53 z m 10.66,23.06 c 4.82,-2.23 6.14,-4.12 4.1,-8.94 -1.9,-4.51 -5.24,-4.62 -10.07,-2.39 l -8.14,3.76 L 198,115 Z m 94.68,-4.46 H 283.14 L 278,95.37 l -21.67,1.86 -3.13,12 -17.65,3.1 17.49,-66 19.52,-1.68 z M 273.12,83.21 267.73,70.93 c -1.86,-4.17 -3.26,-7.88 -3.26,-7.88 h -0.33 c 0,0 -0.75,3.9 -1.87,8.33 l -3.21,13 z M 317,88.2 302.34,43.4 321.26,47 327,66 c 1.08,3.63 2,7.49 2,7.49 l 0.32,0.07 c 0,0 2.46,-3.12 4.95,-6 l 13.09,-14.91 18.71,4.57 -31.88,34.71 -4.88,20.94 -16.55,-3.59 z m 61.67,-25.52 39.72,21.81 -6.92,11.73 -24.47,-13.46 -4.9,9.62 22.63,12.42 -6.76,11.44 -21.9,-12 -5.38,10.49 23.86,13.1 -6.92,11.73 -37.54,-20.61 z m 61.69,38.89 19.27,20.62 c 9.86,10.55 12.22,20.73 0.48,31 -7.5,6.56 -13,8.37 -19.57,5.8 l -10.08,25.44 -11.9,-14.55 9.22,-20.77 -5.5,-5.88 -14.83,14.77 -12.18,-11.57 z m -8.67,32.3 6.52,7 c 3.63,3.88 6.68,4 10.73,0.42 4.05,-3.58 3.93,-6.85 0.3,-10.74 l -6.86,-7.34 z m 24.58,108.71 -5.76,-16.48 18.63,-27.22 c 4,-5.78 6.32,-8.82 6.32,-8.82 l -0.19,-0.46 c 0,0 -4.32,2.15 -9.78,4.59 l -23.75,10.75 -7.22,-14.8 57.5,-26 7.6,15.72 L 480.7,209 c -3.63,5.55 -6.28,8.9 -6.28,8.9 l 0.19,0.46 c 0,0 4.72,-2 10,-4.06 l 25.31,-9.6 5.38,15.56 z"
       id="Schrift" />
  </g>
  <metadata
     id="metadata5">
    <rdf:RDF>
      <cc:Work
         rdf:about="">
        <dc:title>FCBayern Logo 3C</dc:title>
      </cc:Work>
    </rdf:RDF>
  </metadata>
</svg>
